<?xml version="1.0" encoding="UTF-8" standalone="no"?>
<svg
   xmlns:dc="http://purl.org/dc/elements/1.1/"
   xmlns:cc="http://creativecommons.org/ns#"
   xmlns:rdf="http://www.w3.org/1999/02/22-rdf-syntax-ns#"
   xmlns:svg="http://www.w3.org/2000/svg"
   xmlns="http://www.w3.org/2000/svg"
   xmlns:sodipodi="http://sodipodi.sourceforge.net/DTD/sodipodi-0.dtd"
   xmlns:inkscape="http://www.inkscape.org/namespaces/inkscape"
   width="201"
   height="201"
   viewBox="0 0 53.181248 53.181252"
   version="1.1"
   id="svg8"
   sodipodi:docname="logo.svg"
   inkscape:version="1.0.2 (e86c8708, 2021-01-15)">
  <defs
     id="defs2">
    <inkscape:path-effect
       effect="fillet_chamfer"
       id="path-effect1063"
       is_visible="true"
       lpeversion="1"
       satellites_param="F,0,0,1,0,12.523161,0,1 @ F,0,0,1,0,0,0,1 @ F,0,0,1,0,13.044959,0,1 @ F,0,0,1,0,0,0,1"
       unit="px"
       method="auto"
       mode="F"
       radius="0"
       chamfer_steps="1"
       flexible="false"
       use_knot_distance="true"
       apply_no_radius="true"
       apply_with_radius="true"
       only_selected="false"
       hide_knots="false" />
  </defs>
  <sodipodi:namedview
     id="base"
     pagecolor="#ffffff"
     bordercolor="#666666"
     borderopacity="1.0"
     inkscape:pageopacity="0.0"
     inkscape:pageshadow="2"
     inkscape:zoom="1.9038323"
     inkscape:cx="111.966"
     inkscape:cy="98.413946"
     inkscape:document-units="mm"
     inkscape:current-layer="layer1"
     inkscape:document-rotation="0"
     showgrid="false"
     units="px"
     inkscape:window-width="1252"
     inkscape:window-height="847"
     inkscape:window-x="0"
     inkscape:window-y="25"
     inkscape:window-maximized="0"
     fit-margin-top="0"
     fit-margin-left="0"
     fit-margin-right="0"
     fit-margin-bottom="0" />
  <metadata
     id="metadata5">
    <rdf:RDF>
      <cc:Work
         rdf:about="">
        <dc:format>image/svg+xml</dc:format>
        <dc:type
           rdf:resource="http://purl.org/dc/dcmitype/StillImage" />
        <dc:title></dc:title>
      </cc:Work>
    </rdf:RDF>
  </metadata>
  <g
     inkscape:groupmode="layer"
     id="layer4"
     inkscape:label="Layer 3"
     transform="translate(-0.1192448,-4.5918575)" />
  <g
     inkscape:label="Layer 1"
     inkscape:groupmode="layer"
     id="layer1"
     transform="translate(-0.1192448,-4.5918575)">
    <g
       aria-label="GF"
       id="text839"
       style="font-size:44.6942px;line-height:1.25;font-family:'Playfair Display';-inkscape-font-specification:'Playfair Display, @wght=644';font-variation-settings:'wght' 644;fill:#000000;stroke-width:1.11736"
       transform="matrix(1.0021216,0,0,1.008586,0.00627321,4.0374843)">
      <path
         d="m 15.934479,4.4078019 q 3.039205,0 4.916362,0.8938841 1.92185,0.8491898 3.441453,2.0112389 0.53633,0.446942 0.893884,0.446942 0.84919,0 1.117355,-2.7263461 h 1.027966 q -0.08939,1.6983795 -0.134082,4.2012547 -0.04469,2.4581815 -0.04469,6.5253555 H 26.124756 Q 25.811897,13.212561 25.186178,11.290709 24.605153,9.3241639 22.996162,7.9386437 21.878807,6.7765945 20.180428,6.1508758 q -1.69838,-0.670413 -3.39676,-0.670413 -2.413486,0 -4.201254,1.2514375 -1.743074,1.2514376 -2.9051231,3.4414537 -1.1173549,2.145322 -1.6983795,4.916364 -0.5363304,2.77104 -0.5363304,5.810246 0,8.044955 2.2794041,11.799268 2.2794039,3.709619 6.6594359,3.709619 1.162049,0 2.011239,-0.31286 0.893884,-0.312859 1.430214,-0.670413 0.670413,-0.446942 0.893884,-0.983272 0.223471,-0.536331 0.223471,-1.340826 v -4.380032 q 0,-2.011238 -0.357554,-2.994511 -0.312859,-0.983272 -1.296131,-1.340826 -0.983273,-0.357553 -2.860429,-0.402248 v -0.893884 q 0.938578,0.0447 2.190016,0.08939 1.296131,0 2.681652,0.04469 1.38552,0 2.547569,0 1.787768,0 3.262676,-0.04469 1.519603,-0.04469 2.458181,-0.08939 v 0.893884 q -0.849189,0.04469 -1.296131,0.31286 -0.446942,0.268165 -0.625719,1.072661 -0.134083,0.804495 -0.134083,2.45818 v 8.849452 h -0.893884 q -0.04469,-0.759802 -0.357553,-1.653686 -0.268166,-0.893884 -0.938579,-0.893884 -0.312859,0 -0.759801,0.178777 -0.446942,0.134083 -1.474909,0.715107 -1.608991,0.983273 -3.396759,1.653686 -1.787768,0.625719 -3.843701,0.625719 -5.095138,0 -8.62598,-1.877157 -3.4861475,-1.92185 -5.3186096,-5.497386 -1.78776798,-3.62023 -1.78776798,-8.670675 0,-5.095138 2.05593318,-8.894146 Q 4.2245987,8.5643625 7.7554404,6.5084293 11.330976,4.4078019 15.934479,4.4078019 Z"
         style="fill:#000000;stroke-width:1.11736"
         id="path841" />
      <path
         d="m 53.164746,18.163026 q -0.178777,1.966545 -0.268165,3.799007 -0.04469,1.832462 -0.04469,2.815734 0,0.983273 0.04469,1.877157 0.04469,0.893884 0.08939,1.564297 H 51.958003 Q 51.466367,24.777767 50.527789,22.811223 49.58921,20.844678 48.114302,20.040182 46.684087,19.190993 44.449378,19.190993 h -1.743074 q -1.340826,0 -2.011239,0.223471 -0.670413,0.223471 -0.938578,0.938578 -0.223471,0.670413 -0.223471,2.100627 v 22.391794 q 0,1.698379 0.357553,2.592263 0.357554,0.84919 1.38552,1.117355 1.027967,0.268165 2.994512,0.31286 v 0.938578 q -1.340826,-0.08939 -3.486148,-0.08939 -2.100627,-0.04469 -4.380031,-0.04469 -1.877157,0 -3.664924,0.04469 -1.787768,0 -3.173289,0.08939 v -0.893884 q 1.474909,-0.08939 2.190016,-0.357554 0.715107,-0.268165 0.938578,-1.072661 0.268166,-0.804495 0.268166,-2.413486 V 22.900611 q 0,-1.653685 -0.268166,-2.413487 -0.223471,-0.804495 -0.983272,-1.07266 -0.715107,-0.31286 -2.145322,-0.357554 v -0.893884 q 1.832463,0.04469 3.843701,0.08939 2.011239,0 3.977784,0.04469 1.966545,0 3.664924,0 1.69838,0 2.771041,0 2.055933,0 4.648196,0 2.636958,-0.04469 4.692891,-0.134083 z m -6.70413,15.508887 q 0,0 0,0.446942 0,0.446942 0,0.446942 H 38.19219 q 0,0 0,-0.446942 0,-0.446942 0,-0.446942 z m 1.072661,-5.899634 q -0.178777,2.547569 -0.178777,3.888395 0.04469,1.340826 0.04469,2.458181 0,1.117355 0.04469,2.458181 0.04469,1.340826 0.223471,3.888395 h -1.027967 q -0.223471,-1.519602 -0.759801,-2.860428 -0.491636,-1.385521 -1.564297,-2.190016 -1.072661,-0.84919 -2.905123,-0.84919 v -0.893884 q 1.38552,0 2.279404,-0.53633 0.893884,-0.581025 1.430215,-1.474909 0.581024,-0.938578 0.893884,-1.966545 0.357553,-1.027966 0.491636,-1.92185 z"
         style="fill:#000000;fill-opacity:1;stroke-width:1.11736"
         id="path843" />
    </g>
  </g>
</svg>
